<svg width="100" height="100" viewBox="0 0 100 100" fill="none" xmlns="http://www.w3.org/2000/svg">
<g clip-path="url(#clip0_108_12)">
<path d="M80.0945 12.9413C69.4229 6.99572 56.9066 4 44.8043 4C42.1731 4 37.346 5.28297 34.9599 6.37684C31.7991 7.82589 28.5796 9.0938 25.4502 10.6154C21.1504 12.7061 18.0537 14.854 13.7154 18.4184C12.2421 20.1523 10.3132 22.6124 9.30409 24.4339C2.88833 36.0151 1.09852 49.5806 2.39542 62.5866C2.79171 66.5607 4.03333 71.0573 5.91978 74.5707C6.81051 76.2296 7.76817 77.7905 8.6739 79.4159C9.61245 81.1001 11.3342 82.3332 12.455 83.9567C14.3681 86.728 18.1383 89.0471 20.8574 90.9787C24.0002 93.2111 27.9203 95.4199 31.79 96.4472C39.1885 98.4112 45.5635 97.9538 53.1134 97.9538C58.914 97.9538 65.0655 96.3147 70.5251 94.4897C76.2445 92.5778 81.4526 90.3205 85.3461 85.5484C88.0813 82.1958 89.2524 77.5435 91.4378 73.8451C92.7741 71.5838 92.9202 68.8193 94.1686 66.5657C96.7571 61.8931 99 55.547 99 50.1577C99 44.6411 96.8206 39.7724 95.6624 34.5455C93.6479 25.4544 88.2947 17.5099 80.0945 12.9413Z" fill="#512DA8"/>
<path d="M80.0945 12.9413C88.2947 17.5099 93.6479 25.4544 95.6624 34.5455C96.8206 39.7724 97.5 44.9835 97.5 50.5C97.5 55.8893 96.7571 61.8931 94.1686 66.5657C92.9201 68.8193 92.7741 71.5838 91.4378 73.8451C89.2524 77.5435 88.0813 82.1958 85.3461 85.5484C81.4526 90.3205 76.2445 92.5778 70.5251 94.4897C65.0655 96.3147 58.914 97.9538 53.1134 97.9538C45.5635 97.9538 39.1885 98.4112 31.79 96.4472M8.6739 79.4159C7.76817 77.7905 6.81051 76.2296 5.91978 74.5707C4.03333 71.0573 2.79171 66.5607 2.39542 62.5866C1.09852 49.5806 2.88833 36.0151 9.30409 24.4339C10.3132 22.6124 12.2421 20.1523 13.7154 18.4184C18.0537 14.854 21.1504 12.7061 25.4502 10.6154C28.5796 9.0938 31.7991 7.82589 34.9599 6.37684C37.346 5.28297 42.1731 4 44.8043 4C48.6851 4 52.6085 4.30804 56.5 4.92262" stroke="#FF5722" stroke-width="4" stroke-linecap="round" stroke-linejoin="round"/>
<path d="M34.0318 61.6801C41.6392 50.1566 47.4149 40.9045 54.198 30.7475C56.6125 27.8071 58.8321 24.5122 61.2541 21.5803C61.6242 21.1323 62.0119 20.4069 62.4669 20.053C63.321 19.3888 64.3949 18.9999 65.4467 18.7054C67.8553 18.031 70.1681 17.3059 72.5143 16.3994C73.0668 16.186 73.5829 15.8406 74.1315 15.6507C74.4129 15.5533 75 15.1433 75 15.4411C75 15.9998 74.43 16.4979 74.2513 16.9984C73.9716 17.7815 73.777 18.5952 73.5026 19.3792C73.1752 20.3147 72.9803 21.2538 72.694 22.1943C72.5487 22.6717 72.4664 23.845 72.1699 24.2007C71.8822 24.546 71.5453 25.6842 71.4961 26.1024C69.1873 29.2488 67.1882 32.0161 65.0443 35.3144C62.7713 38.8112 60.0655 42.5742 58.2294 46.317C55.9108 51.0433 53.3933 55.5477 50.473 59.9281C49.4028 61.5334 48.3228 63.1297 47.1039 64.6299C46.4831 65.3939 45.3935 66.4069 45.0824 67.3402" stroke="#FF5722" stroke-width="4" stroke-linecap="round" stroke-linejoin="round"/>
<path d="M27.8326 60.0629C34.3471 65.0445 42.7874 66.9172 50.1885 70.1552C51.1072 70.5571 52.2178 70.6537 51.1618 71.5178C50.2393 72.2726 49.4813 73.1298 48.736 74.0783C48.1015 74.8859 47.5772 75.6265 46.8343 76.3693C45.84 77.3637 45.1701 76.8878 44.0043 76.564C38.6334 75.072 34.6148 70.5766 29.4498 68.568C28.5961 68.2359 24.4121 67.2487 24.6133 66.1422C24.8407 64.8913 26.1354 62.8382 27.0241 61.9496" stroke="#FF5722" stroke-width="4" stroke-linecap="round" stroke-linejoin="round"/>
<path d="M32.5056 71.2784C31.6762 73.4036 30.2222 74.6175 29.0455 76.4161C27.3731 77.7168 25.9429 80.4028 24.8679 82.2841C24.4456 83.0231 23.7953 82.1643 23.1159 82.1643C22.0129 82.1643 21.8033 82.244 21.3041 83.2424C20.4947 84.8612 21.4061 87.7066 22.801 88.404C24.1855 89.0963 26.7689 89.003 27.9387 87.8332C28.3431 87.4289 29.683 86.1211 29.6513 85.5498C28.5096 84.4081 28.3465 84.4081 29.0804 83.8372C30.5687 82.6797 32.7376 79.8571 33.6473 78.1286C34.557 76.4002 36.1384 73.458 37.0724 72.9909" stroke="#FF5722" stroke-width="4" stroke-linecap="round" stroke-linejoin="round"/>
</g>
<defs>
<clipPath id="clip0_108_12">
<rect width="100" height="100" fill="white"/>
</clipPath>
</defs>
</svg>
