<svg width="100" height="100" viewBox="0 0 100 100" fill="none" xmlns="http://www.w3.org/2000/svg">
<rect width="100" height="100"/>
<rect x="11" y="20" width="79" height="79" rx="8" fill="#62BDFF"/>
<path d="M29.5621 97.2205C29.5621 96.1246 29.6823 95.0314 29.2601 93.9995C28.9846 93.3258 28.5556 92.5292 28.5556 91.7851C28.5556 90.1595 28.89 89.9696 30.5687 89.7831C33.7456 89.4301 37.5652 90.9478 38.006 86.5398C38.172 84.8802 37.5829 83.3464 37.4021 81.7195C37.22 80.0805 37.0107 78.4603 37.0107 76.7985C37.0107 76.0083 37.212 75.2584 37.212 74.4834C37.212 74.0439 37.0263 73.0152 37.3126 72.6716C37.6686 72.2445 37.5248 71.9431 38.2185 71.844C38.7333 71.7705 39.0688 71.3419 39.527 71.2401C41.349 70.8352 41.6974 68.8341 42.4013 67.4263C43.8458 64.5373 47.4674 62.5949 50.6551 62.5949C53.8328 62.5949 58.2289 62.5456 59.401 66.0619C59.7972 67.2504 60.1547 68.4108 60.5194 69.596C60.8048 70.5235 60.4639 71.4061 60.5641 72.2578C60.6135 72.6775 63.1221 72.2578 63.6845 72.2578C64.5062 72.2578 64.9159 73.8546 65.0042 74.4722C65.2555 76.2317 65.5494 78.0707 65.8989 79.8182C66.2892 81.7699 66.026 83.5949 65.8094 85.5444C65.5975 87.4516 66.1279 90.3011 68.4265 90.5884C69.4772 90.7197 70.4674 90.7785 71.5356 90.7785C72.7077 90.7785 71.9669 92.2191 72.3409 92.8923C72.6788 93.5006 72.4415 94.7075 72.4415 95.4087C72.4415 96.0208 72.5285 96.2139 71.8376 96.2139C70.7117 96.2139 69.5859 96.2139 68.46 96.2139C62.4967 96.2139 56.5054 96.0126 50.5433 96.0126C48.8427 96.0126 47.1575 96.0414 45.4657 95.856C44.229 95.7205 43.067 96.0126 41.8421 96.0126C40.1824 96.0126 38.1951 95.9551 36.5633 96.2587C34.3276 96.6746 31.8493 96.4152 29.5621 96.4152" stroke="black" stroke-width="2" stroke-linecap="round" stroke-linejoin="round"/>
<path d="M41.2382 68.6342C41.8746 65.2137 40.725 61.5018 40.6343 58.0541C40.5622 55.3152 41.0369 52.6414 41.0369 49.9122C41.0369 48.9789 41.4043 48.0542 41.4395 47.1386C41.4663 46.4415 41.8789 45.7429 41.8421 45.0807C41.8026 44.3698 40.6552 43.0141 40.1869 42.5084C39.5322 41.8013 39.2869 41.1739 38.8225 40.3611C38.5238 39.8384 40.4891 39.539 41.0369 39.3433C41.8095 39.0674 42.703 38.6514 43.352 38.1467C44.335 37.3821 45.9139 36.2157 46.0697 34.8138C46.155 34.0462 46.4723 33.4124 46.4723 32.5994C46.4723 32.2974 46.4723 31.9955 46.4723 31.6935C46.4723 31.2797 47.1789 31.9486 47.4789 32.0402C49.0187 32.5107 50.4265 32.9621 52.0084 32.6106C52.6325 32.4719 52.9287 32.3866 53.4176 31.9955C53.4756 31.949 53.7195 32.9582 53.7195 33.304C53.7195 34.6193 55.5962 36.2602 56.6274 36.9164C57.8945 37.7228 59.1019 38.4362 60.4635 39.0414C61.3073 39.4164 60.9941 39.8374 60.2733 40.2492C59.9157 40.4536 59.2016 41.4628 59.1549 41.8597C59.0742 42.5464 58.5903 43.1656 58.551 43.8729C58.5059 44.6847 58.5197 45.367 58.551 46.2439C58.5975 47.5448 58.9536 48.8249 58.9536 50.1583C58.9536 51.3945 59.0366 52.8291 59.3563 54.0279C60.4509 58.1328 60.3628 62.3855 60.3628 66.6211" stroke="black" stroke-width="2" stroke-linecap="round" stroke-linejoin="round"/>
<path d="M58.551 46.4899C53.8311 46.4899 49.1659 47.0939 44.4592 47.0939C43.199 47.0939 42.0418 46.4899 40.8356 46.4899" stroke="black" stroke-width="2" stroke-linecap="round" stroke-linejoin="round"/>
<path d="M38.8225 39.8466C42.4221 41.1486 46.8786 40.4505 50.6551 40.4505C52.1967 40.4505 54.0188 40.7252 55.5201 40.3499C57.0249 39.9737 58.611 39.8466 60.1615 39.8466" stroke="black" stroke-width="2" stroke-linecap="round" stroke-linejoin="round"/>
<path d="M51.7064 25.7548C48.9946 24.814 45.4265 24.4719 44.873 28.0699C44.3486 31.4785 47.7695 32.5994 50.4873 32.5994C51.4353 32.5994 53.0566 32.5043 53.5629 31.5928C54.1178 30.5941 54.6059 29.6165 53.9208 28.5284C53.0009 27.0674 52.431 26.3833 50.7446 25.7995C49.5214 25.3761 48.3757 24.9495 47.0762 24.9495" stroke="black" stroke-width="2" stroke-linecap="round" stroke-linejoin="round"/>
<path d="M50.0959 25.9561C48.7928 21.8023 49.4254 17.0843 49.492 12.8261C49.5484 9.21849 49.6933 5.59655 49.6933 2" stroke="black" stroke-width="2" stroke-linecap="round" stroke-linejoin="round"/>
<path d="M49.6933 2C52.6735 2 56.1497 2.13187 58.7523 3.72233C59.741 4.32652 60.5262 5.28776 61.5707 5.82492C62.832 6.47362 64.0741 6.36373 65.3956 6.73083C66.2091 6.95681 67.2253 6.44835 67.9008 6.64135C68.1506 6.71273 68.397 8.14986 68.4153 8.39724C68.5737 10.5359 69.6242 12.9372 68.9745 15.13C68.7797 15.7874 68.6366 16.6205 68.6166 17.2997C68.573 18.7811 66.909 18.0938 65.9101 17.8142C63.1749 17.0483 60.1021 16.435 58.0477 14.3807C55.5163 11.8492 51.4258 12.2669 48.0828 12.2669" stroke="black" stroke-width="2" stroke-linecap="round" stroke-linejoin="round"/>
<path d="M44.8618 96.0126C45.2855 92.8881 45.4969 89.4646 45.0519 86.3496C44.9648 85.7399 44.082 83.4103 45.119 83.3411C47.7099 83.1684 50.3217 83.1287 52.9143 83.1287C53.8563 83.1287 55.2578 82.8361 55.33 84.1352C55.3558 84.599 55.4602 85.002 55.5425 85.4549C55.6878 86.2541 55.5926 87.1788 55.8333 87.9489C56.2829 89.3877 55.922 90.9746 56.1241 92.389C56.253 93.2915 56.3366 94.3261 56.3366 95.2074" stroke="black" stroke-width="2" stroke-linecap="round" stroke-linejoin="round"/>
<path d="M50.4985 67.8289C48.0946 67.8289 44.8618 68.5162 44.8618 71.5644C44.8618 72.8434 45.5708 74.3838 46.271 75.434C47.3959 77.1213 50.3486 77.2906 52.1538 77.2906C53.8973 77.2906 54.9802 76.2953 55.4307 74.6735C55.8709 73.0886 55.0955 71.711 54.7261 70.2335C54.1497 67.9277 51.4574 68.0302 49.492 68.0302" stroke="black" stroke-width="2" stroke-linecap="round" stroke-linejoin="round"/>
</svg>
