<svg width="100" height="100" viewBox="0 0 100 100" fill="none" xmlns="http://www.w3.org/2000/svg">
<rect width="100" height="100"/>
<path d="M52.9214 20.332C51.0481 20.6258 49.1419 20.7386 47.3519 21.4016C46.685 21.6486 44.6857 22.5885 44.309 23.1536C42.8399 25.3572 41.8578 27.6585 41.3767 30.3643C40.6 34.7334 43.4516 38.9775 47.6285 40.0832C51.4444 41.0933 56.9549 42.1961 60.5379 39.7328C62.6632 38.2716 65.3267 33.6738 64.7979 30.9545C64.3124 28.4573 62.4586 26.2177 60.7038 24.4629C58.2101 21.9692 53.8016 20 50.2657 20" stroke="black" stroke-width="2" stroke-linecap="round" stroke-linejoin="round"/>
<path d="M52.2575 42.2409C50.6269 47.3363 51.804 53.5353 52.7554 58.6726C53.3807 62.0495 53.2533 65.9801 53.2533 69.4242C53.2533 71.0963 53.2533 72.7684 53.2533 74.4404" stroke="black" stroke-width="2" stroke-linecap="round" stroke-linejoin="round"/>
<path d="M53.2533 74.4404C49.2128 77.0325 45.6304 79.2497 42.2804 82.7393C39.675 85.4533 36.9371 88.0246 34 90.3742" stroke="black" stroke-width="2" stroke-linecap="round" stroke-linejoin="round"/>
<path d="M53.9172 74.1085C55.0248 80.5078 59.7222 85.3242 63.6177 90.282C64.6915 91.6487 66.5315 93.4772 66.5315 95.3535" stroke="black" stroke-width="2" stroke-linecap="round" stroke-linejoin="round"/>
<path d="M53.5853 60.4984C56.6347 58.296 59.9102 55.2147 63.4701 53.9331C64.7087 53.4872 65.5558 52.3035 66.8634 51.8676" stroke="black" stroke-width="2" stroke-linecap="round" stroke-linejoin="round"/>
<path d="M52.2575 54.1912C56.2717 53.5891 60.5775 53.3508 64.2078 51.5356" stroke="black" stroke-width="2" stroke-linecap="round" stroke-linejoin="round"/>
<path d="M46.9462 29.9586C50.579 29.0057 53.9221 29.6266 57.5687 29.6266" stroke="black" stroke-width="2" stroke-linecap="round" stroke-linejoin="round"/>
<path d="M48.606 36.5977C51.9322 36.5551 55.2345 36.2657 58.5646 36.2657" stroke="black" stroke-width="2" stroke-linecap="round" stroke-linejoin="round"/>
</svg>
